<svg id="Слой_1" data-name="Слой 1" xmlns="http://www.w3.org/2000/svg" xmlns:xlink="http://www.w3.org/1999/xlink" viewBox="0 0 3607.01 1484.23"><defs><style>.cls-1{fill:url(#linear-gradient);}.cls-2{fill:url(#linear-gradient-2);}.cls-3{fill:url(#linear-gradient-3);}.cls-4{fill:url(#linear-gradient-4);}.cls-5{fill:url(#linear-gradient-5);}.cls-6{fill:url(#linear-gradient-6);}.cls-7{fill:url(#linear-gradient-9);}.cls-8{fill:url(#linear-gradient-10);}</style><linearGradient id="linear-gradient" x1="615.89" y1="1409.09" x2="2995.53" y2="1409.09" gradientUnits="userSpaceOnUse"><stop offset="0" stop-color="#ff7300"/><stop offset="0.35" stop-color="#f77709"/><stop offset="0.93" stop-color="#e18323"/><stop offset="0.99" stop-color="#de8526"/></linearGradient><linearGradient id="linear-gradient-2" x1="641.56" y1="75.14" x2="3021.19" y2="75.14" xlink:href="#linear-gradient"/><linearGradient id="linear-gradient-3" x1="1450.41" y1="2281.97" x2="2112.02" y2="2281.97" gradientUnits="userSpaceOnUse"><stop offset="0.05" stop-color="#fa9a00"/><stop offset="0.43" stop-color="#f6d334"/><stop offset="0.43" stop-color="#f6d335"/><stop offset="0.54" stop-color="#f3cf56"/><stop offset="0.64" stop-color="#f1cc6f"/><stop offset="0.75" stop-color="#f0ca82"/><stop offset="0.87" stop-color="#efc88c"/><stop offset="1" stop-color="#efc890"/></linearGradient><linearGradient id="linear-gradient-4" x1="2165.24" y1="2283.13" x2="2744.59" y2="2283.13" xlink:href="#linear-gradient-3"/><linearGradient id="linear-gradient-5" x1="2829.79" y1="2284.32" x2="3770.27" y2="2284.32" gradientUnits="userSpaceOnUse"><stop offset="0" stop-color="#f6d334"/><stop offset="0.01" stop-color="#f6d335"/><stop offset="0.19" stop-color="#f3cf56"/><stop offset="0.38" stop-color="#f1cc6f"/><stop offset="0.57" stop-color="#f0ca82"/><stop offset="0.77" stop-color="#efc88c"/><stop offset="1" stop-color="#efc890"/></linearGradient><linearGradient id="linear-gradient-6" x1="1450.35" y1="2283.22" x2="3770.2" y2="2283.22" gradientTransform="translate(0.07 0)" gradientUnits="userSpaceOnUse"><stop offset="0" stop-color="#fdc98e"/><stop offset="0.07" stop-color="#f8be7e"/><stop offset="0.27" stop-color="#eaa355"/><stop offset="0.42" stop-color="#e1923b"/><stop offset="0.52" stop-color="#de8c32"/><stop offset="0.53" stop-color="#df8e35"/><stop offset="0.61" stop-color="#e4a356"/><stop offset="0.7" stop-color="#e9b36f"/><stop offset="0.79" stop-color="#ecbf82"/><stop offset="0.89" stop-color="#eec68c"/><stop offset="1" stop-color="#efc890"/></linearGradient><linearGradient id="linear-gradient-9" x1="1122.8" y1="2282.33" x2="504.03" y2="2272.35" gradientTransform="matrix(1, 0, 0, 1, 0, 0)" xlink:href="#linear-gradient-6"/><linearGradient id="linear-gradient-10" x1="3909.45" y1="2301.54" x2="4760.61" y2="2211.72" gradientTransform="matrix(1, 0, 0, 1, 0, 0)" xlink:href="#linear-gradient-6"/></defs><polygon class="cls-1" points="615.89 1484.23 809.02 1333.94 2995.53 1333.94 2802.87 1484.23 615.89 1484.23"/><polygon class="cls-2" points="3021.19 150.29 2828.54 0 641.56 0 834.21 150.29 3021.19 150.29"/><path class="cls-3" d="M2102.35,1838.66q11.31,0,9.39,16.77l-96.64,857.65c-.65,5.58-1.9,9.17-3.79,10.76s-5.35,2.38-10.37,2.37l-79.16-.13q-12.26,0-19.76-16.79L1643.87,2127.4q-2.82-7.18-6.58-7.19t-5.68,13.15l-65.06,575.36c-1.28,6.39-2.85,10.76-4.74,13.15s-6,3.58-12.25,3.57l-86.7-.15q-14.13,0-12.21-22.75l96.63-849.28q.95-9.55,3.32-12.55c1.56-2,5.18-3,10.84-3l93.29.15c5.66,0,10,1.42,13.19,4.21s6.26,7.79,9.39,15l241.24,554.34q3.75,8.39,9.41,8.39,6.58,0,7.56-14.34l62.2-552.63q1.89-9.55,4.26-12t9.9-2.37Z" transform="translate(-779.16 -1539.86)"/><path class="cls-4" d="M2264.89,1841.93c1.57-2,4.56-3,9-3l460.81.79q12.24,0,9.38,22.75l-10.52,89.71q-1.91,10.77-5.2,15c-2.22,2.8-6.46,4.17-12.73,4.16l-315.69-.54c-5,0-8.48,1-10.37,3s-3.16,6.18-3.79,12.55l-23.93,215.31-.95,7.18c0,4,2.81,6,8.47,6l220.51.38q7.53,0,9.41,3.61c1.25,2.39,1.55,6.39.93,12l-11.49,101.68c-.64,4.78-1.75,8-3.31,9.56s-4.57,2.39-9,2.38L2355,2344c-3.77,0-6.45,1.19-8,3.58s-3,6.78-4.26,13.15L2318.76,2582v4.79c0,5.59,1.87,8.37,5.64,8.38l334.53.57c4.39,0,7.54,1.21,9.42,3.61s2.18,6.79.92,13.16L2658.72,2713q-1,8.39-3.32,11.36c-1.58,2-5.19,3-10.84,3l-462.69-.79c-6.92,0-11.63-2-14.13-6s-3.13-10.77-1.85-20.34l95.68-845.68Q2262.51,1844.92,2264.89,1841.93Z" transform="translate(-779.16 -1539.86)"/><path class="cls-5" d="M3770.27,1854.67q0,7.18-4.75,22.73l-287,832.2q-4.74,12-9.92,15.53t-16.5,3.56l-85.75-.14q-11.31,0-17.43-4.82c-4.09-3.18-6.43-8.38-7-15.56l-66.86-578c0-4.78-.93-7.18-2.81-7.18s-3.78,2.39-5.67,7.17L3068.64,2708.9q-4.76,12-9.45,15.53c-3.16,2.39-8.49,3.58-16,3.56l-90.46-.15q-11.31,0-17-4.82c-3.76-3.18-6-8.77-6.56-16.76l-98.46-837.64a39,39,0,0,1-.93-9.57q0-19.12,18.88-19.11l98.95.17c6.9,0,11.78,1.81,14.6,5.4s4.84,9.4,6.09,17.36l65.9,592.33c.6,8,1.86,12,3.74,12q3.77,0,6.62-10.76L3247.26,1855c1.9-6.38,4.26-10.35,7.09-12s8-2.38,15.55-2.36l86.7.15c6.27,0,10.51,1.62,12.71,4.8s3.9,9.19,5.15,18l67.77,599.51c0,4.78,1.24,7.18,3.76,7.18s4.71-3.58,6.61-10.76l200.81-603.83q2.85-8.36,7.09-11.35c2.83-2,7.69-3,14.61-3l81,.14C3765.58,1841.5,3770.28,1845.91,3770.27,1854.67Z" transform="translate(-779.16 -1539.86)"/><path class="cls-6" d="M2102.35,1838.66q11.31,0,9.39,16.77l-96.64,857.65c-.65,5.58-1.9,9.17-3.79,10.76s-5.35,2.38-10.37,2.37l-79.16-.13q-12.26,0-19.76-16.79L1643.87,2127.4q-2.82-7.18-6.58-7.19t-5.68,13.15l-65.06,575.36c-1.28,6.39-2.85,10.76-4.74,13.15s-6,3.58-12.25,3.57l-86.7-.15q-14.13,0-12.21-22.75l96.63-849.28q.95-9.55,3.32-12.55c1.56-2,5.18-3,10.84-3l93.29.15c5.66,0,10,1.42,13.19,4.21s6.26,7.79,9.39,15l241.24,554.34q3.75,8.39,9.41,8.39,6.58,0,7.56-14.34l62.2-552.63q1.89-9.55,4.26-12t9.9-2.37Z" transform="translate(-779.16 -1539.86)"/><path class="cls-6" d="M2264.89,1841.93c1.57-2,4.56-3,9-3l460.81.79q12.24,0,9.38,22.75l-10.52,89.71q-1.91,10.77-5.2,15c-2.22,2.8-6.46,4.17-12.73,4.16l-315.69-.54c-5,0-8.48,1-10.37,3s-3.16,6.18-3.79,12.55l-23.93,215.31-.95,7.18c0,4,2.81,6,8.47,6l220.51.38q7.53,0,9.41,3.61c1.25,2.39,1.55,6.39.93,12l-11.49,101.68c-.64,4.78-1.75,8-3.31,9.56s-4.57,2.39-9,2.38L2355,2344c-3.77,0-6.45,1.19-8,3.58s-3,6.78-4.26,13.15L2318.76,2582v4.79c0,5.59,1.87,8.37,5.64,8.38l334.53.57c4.39,0,7.54,1.21,9.42,3.61s2.18,6.79.92,13.16L2658.72,2713q-1,8.39-3.32,11.36c-1.58,2-5.19,3-10.84,3l-462.69-.79c-6.92,0-11.63-2-14.13-6s-3.13-10.77-1.85-20.34l95.68-845.68Q2262.51,1844.92,2264.89,1841.93Z" transform="translate(-779.16 -1539.86)"/><path class="cls-6" d="M3770.27,1854.67q0,7.18-4.75,22.73l-287,832.2q-4.74,12-9.92,15.53t-16.5,3.56l-85.75-.14q-11.31,0-17.43-4.82c-4.09-3.18-6.43-8.38-7-15.56l-66.86-578c0-4.78-.93-7.18-2.81-7.18s-3.78,2.39-5.67,7.17L3068.64,2708.9q-4.76,12-9.45,15.53c-3.16,2.39-8.49,3.58-16,3.56l-90.46-.15q-11.31,0-17-4.82c-3.76-3.18-6-8.77-6.56-16.76l-98.46-837.64a39,39,0,0,1-.93-9.57q0-19.12,18.88-19.11l98.95.17c6.9,0,11.78,1.81,14.6,5.4s4.84,9.4,6.09,17.36l65.9,592.33c.6,8,1.86,12,3.74,12q3.77,0,6.62-10.76L3247.26,1855c1.9-6.38,4.26-10.35,7.09-12s8-2.38,15.55-2.36l86.7.15c6.27,0,10.51,1.62,12.71,4.8s3.9,9.19,5.15,18l67.77,599.51c0,4.78,1.24,7.18,3.76,7.18s4.71-3.58,6.61-10.76l200.81-603.83q2.85-8.36,7.09-11.35c2.83-2,7.69-3,14.61-3l81,.14C3765.58,1841.5,3770.28,1845.91,3770.27,1854.67Z" transform="translate(-779.16 -1539.86)"/><path class="cls-7" d="M1232.25,1979.89q-37.27-19.82-89.25-19.83-65.71,0-107.38,35.58t-41.69,93.89q0,60.66,77.48,94.47l144.17,59.48q75.51,31.5,110.82,78.73t35.31,114.89q0,91-40.21,156.29t-110.34,99.14q-70.12,33.81-158.38,33.82-99.07,0-166.73-40.24t-103-116.05q-3.93-8.14-3.92-14c0-6.22,2.6-10.88,7.84-14l63.75-46.66c5.22-3.88,9.81-5.83,13.73-5.83q8.82,0,18.63,14,25.5,39.66,47.08,61.23t53,32.66q31.36,11.1,81.4,11.08,69.62,0,112.29-32.66t42.66-99.14q0-31.48-19.12-54.23t-63.26-41.41l-142.2-59.48q-67.68-26.82-103-79.9t-35.31-119.55q0-84,39.72-148.71a273.36,273.36,0,0,1,106.9-100.3q67.17-35.57,146.62-35.57T1290.6,1872q61.29,34.43,97.59,89.23c4.56,7.78,6.86,13.23,6.86,16.33,0,3.9-2,7-5.88,9.33l-74.54,59.48c-.66.78-2,1.17-3.92,1.17q-3.93,0-9.81-7c-3.92-4.67-6.54-7.76-7.84-9.33Q1269.51,1999.71,1232.25,1979.89Z" transform="translate(-779.16 -1539.86)"/><path class="cls-8" d="M4223.36,1979.89q-37.27-19.82-89.24-19.83-65.72,0-107.39,35.58t-41.68,93.89q0,60.66,77.47,94.47l144.17,59.48q75.51,31.5,110.82,78.73t35.31,114.89q0,91-40.21,156.29t-110.33,99.14q-70.14,33.81-158.39,33.82-99.07,0-166.72-40.24t-103-116.05q-3.93-8.14-3.92-14c0-6.22,2.6-10.88,7.84-14l63.75-46.66q7.84-5.82,13.73-5.83,8.82,0,18.63,14,25.5,39.66,47.08,61.23t53,32.66q31.38,11.1,81.4,11.08,69.61,0,112.29-32.66t42.66-99.14q0-31.48-19.12-54.23t-63.26-41.41L3986,2321.63q-67.68-26.82-103-79.9t-35.31-119.55q0-84,39.72-148.71a273.36,273.36,0,0,1,106.9-100.3q67.17-35.57,146.62-35.57t140.74,34.4q61.27,34.43,97.58,89.23c4.56,7.78,6.86,13.23,6.86,16.33,0,3.9-2,7-5.88,9.33l-74.54,59.48c-.66.78-2,1.17-3.92,1.17-2.62,0-5.88-2.34-9.81-7s-6.54-7.76-7.84-9.33Q4260.63,1999.71,4223.36,1979.89Z" transform="translate(-779.16 -1539.86)"/></svg>